<?xml version="1.0" standalone="no"?>
<!DOCTYPE svg PUBLIC "-//W3C//DTD SVG 20010904//EN"
 "http://www.w3.org/TR/2001/REC-SVG-20010904/DTD/svg10.dtd">
<svg version="1.0" xmlns="http://www.w3.org/2000/svg"
 width="493.000000pt" height="493.000000pt" viewBox="0 0 493.000000 493.000000"
 preserveAspectRatio="xMidYMid meet">

<g transform="translate(0.000000,493.000000) scale(0.100000,-0.100000)"
fill="#000000" stroke="none">
<path d="M2511 3985 c-2 -155 20 -705 29 -728 21 -53 6 517 -20 748 l-7 70 -2
-90z"/>
<path d="M3040 3252 c-18 -42 -42 -97 -53 -122 -26 -58 -77 -206 -77 -222 0
-31 30 24 53 97 14 44 46 133 72 199 25 65 44 120 42 122 -2 2 -18 -31 -37
-74z"/>
<path d="M2031 3199 c-1 -3 16 -44 38 -90 21 -46 64 -149 96 -229 60 -152 71
-175 59 -125 -19 79 -191 474 -193 444z"/>
<path d="M2541 2885 c-1 -5 -8 -82 -16 -170 -8 -88 -19 -205 -25 -260 -9 -96
-32 -354 -46 -517 l-6 -78 -75 70 c-88 83 -176 142 -298 203 -92 46 -325 141
-330 135 -2 -2 42 -30 97 -63 367 -217 521 -451 558 -846 10 -108 1 -273 -16
-301 -3 -4 72 -8 166 -8 l171 0 -8 48 c-4 26 -8 112 -8 192 1 121 5 158 24
225 80 276 270 516 573 722 54 37 96 68 94 70 -2 2 -100 -43 -218 -101 -245
-119 -334 -180 -454 -310 l-82 -88 -6 59 c-4 32 -11 121 -16 198 -18 253 -75
847 -79 820z"/>
<path d="M3604 2849 c-19 -22 -19 -22 4 -8 12 8 22 17 22 21 0 12 -6 9 -26
-13z"/>
<path d="M1370 2850 c8 -5 20 -10 25 -10 6 0 3 5 -5 10 -8 5 -19 10 -25 10 -5
0 -3 -5 5 -10z"/>
<path d="M1410 2836 c0 -3 28 -20 62 -37 80 -41 208 -120 277 -171 30 -23 51
-35 46 -29 -16 27 -163 126 -270 182 -63 34 -115 58 -115 55z"/>
<path d="M3490 2761 c-47 -38 -98 -84 -115 -102 -16 -17 23 12 88 66 103 86
125 106 115 105 -2 0 -41 -31 -88 -69z"/>
<path d="M3655 2225 c-81 -15 -159 -35 -154 -40 2 -1 31 2 64 8 33 6 185 11
337 11 283 1 316 7 137 26 -132 13 -296 11 -384 -5z"/>
<path d="M4463 2215 c0 -8 4 -12 9 -9 5 3 6 10 3 15 -9 13 -12 11 -12 -6z"/>
<path d="M1705 2100 c-7 -12 2 -12 30 0 19 8 19 9 -2 9 -12 1 -25 -3 -28 -9z"/>
<path d="M3223 1893 c9 -2 23 -2 30 0 6 3 -1 5 -18 5 -16 0 -22 -2 -12 -5z"/>
<path d="M3370 1866 c47 -13 118 -35 159 -50 41 -14 76 -25 78 -22 8 7 -159
67 -227 82 -99 21 -105 15 -10 -10z"/>
<path d="M1783 1813 c9 -2 25 -2 35 0 9 3 1 5 -18 5 -19 0 -27 -2 -17 -5z"/>
<path d="M1708 1803 c7 -3 16 -2 19 1 4 3 -2 6 -13 5 -11 0 -14 -3 -6 -6z"/>
</g>
</svg>
